<svg width="100" height="100" viewBox="0 0 100 100" fill="none" xmlns="http://www.w3.org/2000/svg">
<path d="M50.3917 92V53.285C53.3581 61.903 56.5643 65.2321 64.8828 68.6412C55.8214 75.367 53.2883 80.5472 52.7709 92H50.3917Z" fill="currentColor"/>
<path d="M50.3917 92V53.5013C47.3811 62.0711 44.127 65.3816 35.6843 68.7717C44.881 75.4599 47.4519 80.6112 47.9771 92H50.3917Z" fill="currentColor"/>
<path d="M50.3917 7V45.715C53.3581 37.097 56.5643 33.7679 64.8828 30.3588C55.8214 23.633 53.2883 18.4528 52.7709 7H50.3917Z" fill="currentColor"/>
<path d="M50.3917 6.99998V45.4987C47.3811 36.9288 44.127 33.6183 35.6843 30.2283C44.881 23.5401 47.4519 18.3888 47.9771 6.99998H50.3917Z" fill="currentColor"/>
<path d="M8.00002 49.3919H46.715C38.097 52.3583 34.7679 55.5644 31.3588 63.883C24.633 54.8216 19.4528 52.2885 8.00002 51.771V49.3919Z" fill="currentColor"/>
<path d="M8.00005 49.3919H46.4988C37.9289 46.3812 34.6184 43.1272 31.2283 34.6845C24.5401 43.8812 19.3888 46.452 8.00005 46.9772V49.3919Z" fill="currentColor"/>
<path d="M93 49.3919H54.285C62.903 52.3583 66.2321 55.5644 69.6412 63.883C76.367 54.8216 81.5472 52.2885 93 51.771V49.3919Z" fill="currentColor"/>
<path d="M93 49.3919H54.5012C63.0711 46.3812 66.3816 43.1272 69.7717 34.6845C76.4599 43.8812 81.6112 46.452 93 46.9772V49.3919Z" fill="currentColor"/>
</svg>
