<svg width="100" height="100" viewBox="0 0 100 100" fill="none" xmlns="http://www.w3.org/2000/svg">
<path d="M53 49.1113C61.6178 52.1591 64.9474 55.4533 68.3564 64C75.0821 54.6902 80.2623 52.0873 91.7148 51.5557V46.6309C80.3261 46.0912 75.1745 43.4491 68.4863 34C65.0963 42.6744 61.7856 46.018 53.2158 49.1113H53ZM35 31.2285C43.6744 34.6186 47.018 37.9292 50.1113 46.499V46.7148C53.1591 38.0971 56.4533 34.7675 65 31.3584C55.6902 24.6328 53.0873 19.4526 52.5557 8H47.6309C47.0912 19.3887 44.4491 24.5404 35 31.2285ZM46.499 49.1113C37.9292 46.018 34.6186 42.6744 31.2285 34C24.5404 43.4491 19.3887 46.0912 8 46.6309V51.5557C19.4526 52.0873 24.6328 54.6902 31.3584 64C32.9393 60.0366 34.5039 57.2035 36.5859 55H49.1357C46.2686 62.1593 42.8516 65.2247 35 68.3564C44.3098 75.0821 46.9127 80.2623 47.4443 91.7148H52.3691C52.9088 80.3261 55.5509 75.1745 65 68.4863C56.3256 65.0963 52.982 61.7856 49.8887 53.2158V53C49.6408 53.7009 49.3896 54.3662 49.1357 55H36.5859C38.9936 52.4518 42.0934 50.7457 46.7148 49.1113H46.499Z" fill="currentColor"/>
</svg>
