<svg width="100" height="100" viewBox="0 0 100 100" fill="none" xmlns="http://www.w3.org/2000/svg">
<path d="M45.8758 10.6859C41.7333 12.8908 39.3948 17.4343 40.5306 21.1759C41.5997 24.7839 44.4727 26.7884 51.0874 28.392C58.4371 30.2628 61.0429 31.5323 64.7845 35.2739C68.6598 39.1492 71.0652 43.8263 71.9337 49.1047C73.0696 56.2539 76.2099 59.9287 81.0206 59.9287C85.7645 59.9287 89.3057 56.7884 90.7756 51.1759C92.7801 43.7594 89.1721 37.3452 82.3569 36.0089C73.6041 34.2717 65.5863 26.1202 64.25 17.8352C63.0473 10.285 53.6264 6.61021 45.8758 10.6859Z" fill="currentColor"/>
<path d="M22.3569 12.089C14.0718 15.0957 8.32572 25.0512 11.466 31.0646C12.6687 33.4031 14.4727 34.2717 20.152 35.2071C29.3725 36.677 34.0496 41.5545 36.1876 51.8441C37.858 59.7283 40.7311 62.4677 49.1498 64.2049C58.838 66.2093 65.3191 73.3586 65.3191 81.9109C65.3191 93.069 81.1543 91.5323 86.9672 79.8396C90.8425 72.0891 87.5685 65.9421 79.6175 65.9421C71.5997 65.9421 64.25 58.1915 62.9805 48.4365C62.1788 42.2895 57.9694 38.4142 50.2857 36.8107C40.1297 34.6726 35.1186 29.3942 33.9159 19.4387C33.3146 14.628 32.5796 13.3585 29.4393 12.0222C26.7667 10.9532 25.6309 10.9532 22.3569 12.089Z" fill="currentColor"/>
<path d="M73.3369 14.4944C69.9293 17.902 73.1364 25.3185 78.9494 27.5234C84.5618 29.6615 88.2367 26.3875 86.3659 20.9087C84.2278 14.6949 76.7445 11.0869 73.3369 14.4944Z" fill="currentColor"/>
<path d="M13.5373 42.49C10.7979 44.1603 9.26112 46.6325 8.32571 50.9087C6.85577 57.9243 10.4638 63.7372 17.0785 65.2071C25.9649 67.0779 32.6464 73.6258 34.9181 82.6459C36.6553 89.3942 39.9293 92 46.7444 92C61.1765 92 63.6487 75.0958 49.4839 72.9577C38.5262 71.3541 29.8402 63.6704 27.9026 54.049C25.9649 44.6949 23.4259 41.2205 18.348 41.2205C16.8112 41.2205 14.6063 41.755 13.5373 42.49Z" fill="currentColor"/>
<path d="M15.2077 73.0245C8.12526 75.7639 15.809 89.1269 23.6264 87.7238C30.7756 86.3207 26.4994 73.9599 18.5484 72.9577C17.2789 72.824 15.7422 72.824 15.2077 73.0245Z" fill="currentColor"/>
</svg>
